<?xml version="1.0" encoding="UTF-8"?>
<svg xmlns="http://www.w3.org/2000/svg" xmlns:xlink="http://www.w3.org/1999/xlink" width="155pt" height="202pt" viewBox="0 0 155 202" version="1.1">
<defs>
<clipPath id="clip1">
  <path d="M 10.648438 10.703125 L 144.808594 10.703125 L 144.808594 191.613281 L 10.648438 191.613281 Z M 10.648438 10.703125 "/>
</clipPath>
</defs>
<g id="surface1">
<g clip-path="url(#clip1)" clip-rule="nonzero">
<path style="fill:none;stroke-width:2.684307;stroke-linecap:round;stroke-linejoin:round;stroke:rgb(0%,0%,0%);stroke-opacity:1;stroke-miterlimit:10;" d="M 274.933573 817.027263 C 274.949198 817.027263 274.964823 817.027263 274.972636 817.011638 C 274.980448 816.996013 274.980448 816.964763 274.957011 816.851481 C 274.933573 816.7382 274.886698 816.538981 274.820292 816.3007 C 274.753885 816.058513 274.667948 815.777263 274.570291 815.437419 C 274.468729 815.093669 274.355447 814.695231 274.20701 814.187419 C 274.058572 813.683513 273.874978 813.074138 273.652322 812.371013 C 273.425759 811.667888 273.160134 810.871013 272.867165 810.038981 C 272.578102 809.210856 272.261695 808.351481 271.898414 807.367106 C 271.531226 806.382731 271.117163 805.273356 270.695288 804.105388 C 270.273412 802.937419 269.843724 801.714763 269.390599 800.433513 C 268.933567 799.148356 268.453098 797.812419 267.921847 796.355388 C 267.390597 794.898356 266.808565 793.324138 266.238252 791.785075 C 265.664033 790.246013 265.101532 788.7382 264.531219 787.1757 C 263.957 785.6132 263.374968 783.992106 262.792936 782.359294 C 262.210904 780.730388 261.628872 779.089763 261.042934 777.45695 C 260.45309 775.828044 259.859339 774.20695 259.312464 772.648356 C 258.765588 771.093669 258.265588 769.605388 257.726525 767.972575 C 257.187462 766.343669 256.609336 764.570231 256.105429 763.0507 C 255.597616 761.527263 255.164022 760.257731 254.742147 758.949138 C 254.316365 757.640544 253.902302 756.296794 253.531208 755.027263 C 253.156208 753.757731 252.824176 752.566325 252.535113 751.507731 C 252.242144 750.449138 251.992144 749.527263 251.7773 748.667888 C 251.562456 747.808513 251.382768 747.011638 251.210893 746.2382 C 251.035112 745.468669 250.867143 744.722575 250.718705 744.046794 C 250.566361 743.367106 250.433549 742.757731 250.320267 742.230388 C 250.20308 741.699138 250.105423 741.253825 250.015579 740.8632 C 249.925736 740.468669 249.843704 740.136638 249.777298 739.8632 C 249.710892 739.589763 249.66011 739.374919 249.617141 739.210856 C 249.574173 739.046794 249.539016 738.933513 249.515579 738.843669 C 249.488235 738.749919 249.47261 738.683513 249.464798 738.663981 C 249.456985 738.648356 249.456985 738.679606 249.456985 738.828044 C 249.456985 738.976481 249.456985 739.242106 249.464798 739.570231 C 249.47261 739.902263 249.488235 740.296794 249.539016 740.710856 C 249.589798 741.128825 249.675735 741.558513 249.777298 742.066325 C 249.874954 742.570231 249.988236 743.148356 250.105423 743.7382 C 250.218705 744.328044 250.335892 744.9257 250.460892 745.554606 C 250.585892 746.187419 250.718705 746.847575 250.843705 747.527263 C 250.968705 748.203044 251.085893 748.898356 251.218706 749.593669 C 251.351518 750.288981 251.499956 750.984294 251.640581 751.691325 C 251.781206 752.39445 251.914019 753.101481 252.039019 753.785075 C 252.164019 754.472575 252.281207 755.132731 252.398394 755.710856 C 252.511676 756.288981 252.624957 756.785075 252.72652 757.277263 C 252.824176 757.765544 252.910114 758.249919 252.97652 758.648356 C 253.042926 759.046794 253.089801 759.359294 253.13277 759.609294 C 253.171833 759.855388 253.206989 760.038981 253.234333 760.171794 C 253.25777 760.304606 253.273395 760.386638 253.281208 760.445231 C 253.28902 760.499919 253.28902 760.531169 253.281208 760.449138 C 253.273395 760.367106 253.25777 760.167888 253.183551 759.906169 C 253.109332 759.640544 252.97652 759.312419 252.859332 758.980388 C 252.742145 758.652263 252.640582 758.316325 252.515582 757.917888 C 252.390582 757.51945 252.242144 757.058513 252.093706 756.593669 C 251.945269 756.128825 251.796831 755.663981 251.656206 755.195231 C 251.515581 754.722575 251.382768 754.242106 251.249956 753.746013 C 251.117143 753.246013 250.98433 752.730388 250.851518 752.226481 C 250.718705 751.722575 250.585892 751.226481 250.460892 750.7382 C 250.335892 750.249919 250.218705 749.773356 250.113236 749.292888 C 250.003861 748.812419 249.906204 748.33195 249.81636 747.878825 C 249.726517 747.421794 249.644485 746.9882 249.578079 746.609294 C 249.511673 746.230388 249.460891 745.898356 249.417923 745.578044 C 249.374954 745.253825 249.339797 744.937419 249.324172 744.663981 C 249.304641 744.390544 249.304641 744.160075 249.304641 743.953044 C 249.304641 743.749919 249.304641 743.566325 249.304641 743.398356 C 249.304641 743.230388 249.304641 743.08195 249.304641 742.964763 C 249.304641 742.851481 249.304641 742.773356 249.331985 742.70695 C 249.355422 742.64445 249.406204 742.589763 249.47261 742.5507 C 249.539016 742.507731 249.621048 742.476481 249.72261 742.460856 C 249.820267 742.445231 249.937454 742.445231 250.046829 742.445231 C 250.152298 742.445231 250.249955 742.445231 250.367142 742.460856 C 250.480424 742.476481 250.613236 742.507731 250.757768 742.597575 C 250.898393 742.691325 251.050737 742.839763 251.210893 743.015544 C 251.367143 743.191325 251.531206 743.390544 251.706987 743.628825 C 251.878862 743.867106 252.062456 744.148356 252.238238 744.445231 C 252.410113 744.742106 252.574176 745.054606 252.746051 745.359294 C 252.921832 745.663981 253.105426 745.960856 253.296833 746.335856 C 253.488239 746.70695 253.687458 747.156169 253.871052 747.585856 C 254.05074 748.015544 254.214802 748.4257 254.382771 748.851481 C 254.546834 749.273356 254.714803 749.703044 254.867147 750.124919 C 255.015584 750.546794 255.148397 750.960856 255.265585 751.359294 C 255.378866 751.757731 255.476522 752.14445 255.558554 752.484294 C 255.640585 752.824138 255.706991 753.121013 255.765585 753.410075 C 255.824179 753.699138 255.87496 753.980388 255.910117 754.214763 C 255.941367 754.445231 255.956992 754.628825 255.964804 754.777263 C 255.972617 754.9257 255.972617 755.038981 255.972617 755.140544 C 255.972617 755.2382 255.972617 755.320231 255.972617 755.378825 C 255.972617 755.437419 255.972617 755.468669 255.929648 755.484294 C 255.890585 755.499919 255.808554 755.499919 255.71871 755.492106 C 255.628866 755.484294 255.53121 755.468669 255.40621 755.374919 C 255.28121 755.285075 255.128866 755.117106 254.996053 754.953044 C 254.86324 754.785075 254.749959 754.617106 254.617146 754.437419 C 254.484334 754.253825 254.33199 754.054606 254.191365 753.847575 C 254.046833 753.64445 253.914021 753.429606 253.785114 753.20695 C 253.652302 752.9882 253.523395 752.757731 253.394489 752.527263 C 253.261676 752.292888 253.128864 752.058513 252.996051 751.816325 C 252.863238 751.574138 252.730426 751.324138 252.613238 751.070231 C 252.496051 750.812419 252.394488 750.554606 252.296832 750.288981 C 252.195269 750.027263 252.097613 749.761638 252.007769 749.503825 C 251.914019 749.246013 251.828081 748.996013 251.753862 748.765544 C 251.675737 748.531169 251.609331 748.316325 251.554643 748.1132 C 251.49605 747.906169 251.449175 747.70695 251.417925 747.51945 C 251.382768 747.328044 251.363237 747.14445 251.347612 746.972575 C 251.328081 746.796794 251.312456 746.628825 251.304643 746.472575 C 251.296831 746.312419 251.296831 746.160075 251.296831 746.01945 C 251.296831 745.878825 251.296831 745.749919 251.289018 745.585856 C 251.281206 745.421794 251.265581 745.222575 251.249956 745.023356 M 254.976522 729.874919 C 254.960897 729.874919 254.945272 729.874919 254.929647 729.874919 C 254.914022 729.874919 254.898397 729.874919 254.890584 729.882731 C 254.882772 729.890544 254.882772 729.906169 254.882772 729.984294 C 254.882772 730.058513 254.882772 730.195231 254.925741 730.3632 C 254.964803 730.527263 255.046834 730.726481 255.15621 730.964763 C 255.261678 731.20695 255.394491 731.4882 255.535116 731.792888 C 255.675741 732.097575 255.824179 732.4257 255.992148 732.804606 C 256.156211 733.187419 256.339804 733.617106 256.554648 734.109294 C 256.773399 734.597575 257.023399 735.14445 257.273399 735.722575 C 257.519493 736.3007 257.765587 736.910075 258.066369 737.58195 C 258.363244 738.249919 258.714807 738.980388 259.074182 739.710856 C 259.429651 740.437419 259.792933 741.167888 260.179652 741.937419 C 260.570277 742.70695 260.98434 743.515544 261.425747 744.382731 C 261.863247 745.249919 262.328092 746.1757 262.85153 747.222575 C 263.374968 748.265544 263.957 749.429606 264.539031 750.601481 C 265.117157 751.777263 265.695283 752.964763 266.308564 754.191325 C 266.921846 755.413981 267.570284 756.6757 268.285129 758.066325 C 268.999973 759.45695 269.781224 760.980388 270.54685 762.503825 C 271.308569 764.023356 272.054664 765.546794 272.785133 767.01945 C 273.511697 768.496013 274.222635 769.921794 275.042948 771.511638 C 275.863261 773.101481 276.79295 774.851481 277.707013 776.562419 C 278.61717 778.277263 279.511703 779.949138 280.410141 781.621013 C 281.304673 783.292888 282.203112 784.964763 283.093737 786.597575 C 283.980457 788.226481 284.859364 789.816325 285.699209 791.406169 C 286.535147 792.996013 287.332023 794.585856 288.070305 796.074138 C 288.808587 797.566325 289.488275 798.95695 290.210932 800.45695 C 290.929683 801.953044 291.691402 803.558513 292.398434 805.0507 C 293.10156 806.538981 293.749998 807.913981 294.33203 809.187419 C 294.910156 810.464763 295.421875 811.636638 295.925782 812.828044 C 296.433595 814.015544 296.933595 815.226481 297.363283 816.292888 C 297.796877 817.3632 298.160159 818.288981 298.480472 819.124919 C 298.804691 819.960856 299.085941 820.70695 299.335941 821.402263 C 299.582035 822.097575 299.796879 822.746013 299.949223 823.273356 C 300.097661 823.804606 300.183598 824.214763 300.23438 824.538981 C 300.285161 824.859294 300.300786 825.093669 300.308598 825.26945 C 300.316411 825.445231 300.316411 825.558513 300.277348 825.617106 C 300.23438 825.671794 300.152348 825.671794 299.992192 825.632731 C 299.835942 825.589763 299.601566 825.507731 299.277347 825.210856 C 298.953128 824.913981 298.539065 824.402263 298.08594 823.812419 C 297.628908 823.222575 297.132814 822.558513 296.570313 821.746013 C 296.003907 820.933513 295.371093 819.972575 294.714843 818.929606 C 294.058592 817.886638 293.378904 816.761638 292.624997 815.480388 C 291.87109 814.199138 291.042964 812.761638 290.273432 811.429606 C 289.499994 810.097575 288.785149 808.874919 287.957024 807.4257 C 287.124991 805.976481 286.179678 804.304606 285.269521 802.648356 C 284.355457 800.9882 283.47655 799.347575 282.582018 797.6757 C 281.687486 796.003825 280.777329 794.3007 279.863265 792.562419 C 278.953108 790.824138 278.039045 789.0507 277.085919 787.109294 C 276.128887 785.163981 275.132792 783.046794 274.234354 781.128825 C 273.339821 779.20695 272.542946 777.484294 271.730445 775.671794 C 270.917944 773.855388 270.089818 771.953044 269.308567 770.089763 C 268.531223 768.230388 267.800753 766.406169 267.128878 764.703044 C 266.457002 762.996013 265.84372 761.413981 265.332001 760.007731 C 264.816375 758.597575 264.402313 757.371013 264.023406 756.124919 C 263.640593 754.882731 263.292936 753.628825 263.019499 752.511638 C 262.746061 751.398356 262.546842 750.421794 262.382779 749.480388 C 262.21481 748.535075 262.081998 747.624919 261.988248 746.820231 C 261.898404 746.015544 261.847622 745.316325 261.816372 744.656169 C 261.781216 743.992106 261.765591 743.367106 261.757779 742.824138 C 261.749966 742.277263 261.749966 741.816325 261.749966 741.410075 C 261.749966 741.003825 261.749966 740.652263 261.757779 740.335856 C 261.765591 740.023356 261.781216 739.742106 261.847622 739.507731 C 261.914029 739.277263 262.031216 739.093669 262.164029 738.953044 C 262.296842 738.812419 262.445279 738.714763 262.605436 738.656169 C 262.761686 738.601481 262.929655 738.585856 263.121061 738.578044 C 263.312468 738.570231 263.527312 738.570231 263.742156 738.624919 C 263.957 738.683513 264.171844 738.796794 264.3945 738.960856 C 264.617156 739.124919 264.847625 739.339763 265.105438 739.605388 C 265.363251 739.871013 265.648407 740.187419 265.941377 740.51945 C 266.230439 740.851481 266.527315 741.195231 266.843721 741.597575 C 267.156222 742.003825 267.488253 742.464763 267.812472 742.921794 C 268.136691 743.378825 268.453098 743.828044 268.777317 744.281169 C 269.101536 744.7382 269.433568 745.203044 269.738255 745.640544 C 270.046849 746.08195 270.3281 746.499919 270.617162 746.937419 C 270.906225 747.374919 271.203101 747.83195 271.492163 748.26945 C 271.781226 748.70695 272.062476 749.124919 272.335914 749.507731 C 272.609352 749.890544 272.874977 750.242106 273.10154 750.546794 C 273.324196 750.851481 273.50779 751.109294 273.691384 751.359294 C 273.874978 751.605388 274.058572 751.839763 274.20701 752.035075 C 274.355447 752.226481 274.468729 752.378825 274.570291 752.503825 C 274.667948 752.628825 274.753885 752.726481 274.820292 752.8007 C 274.886698 752.871013 274.933573 752.917888 274.976542 752.968669 C 275.015604 753.01945 275.050761 753.070231 275.078104 753.097575 C 275.101542 753.121013 275.117167 753.121013 275.117167 753.097575 C 275.117167 753.070231 275.101542 753.01945 275.035136 752.910075 C 274.968729 752.8007 274.851542 752.632731 274.734354 752.433513 C 274.621073 752.2382 274.507791 752.007731 274.374979 751.761638 C 274.242166 751.511638 274.089822 751.246013 273.921853 750.949138 C 273.757791 750.652263 273.578103 750.324138 273.406228 749.992106 C 273.230446 749.663981 273.062477 749.328044 272.91404 749.007731 C 272.761696 748.683513 272.628883 748.371013 272.480446 748.023356 C 272.332008 747.6757 272.167945 747.296794 272.011695 746.9257 C 271.851539 746.5507 271.699195 746.187419 271.554663 745.828044 C 271.414038 745.472575 271.281226 745.124919 271.167944 744.808513 C 271.050757 744.492106 270.9531 744.210856 270.863256 743.921794 C 270.773413 743.632731 270.691381 743.335856 270.624975 743.089763 C 270.558569 742.839763 270.507787 742.64445 270.476537 742.445231 C 270.441381 742.246013 270.425756 742.0507 270.417944 741.874919 C 270.410131 741.699138 270.410131 741.5507 270.410131 741.417888 C 270.410131 741.285075 270.410131 741.167888 270.410131 741.070231 C 270.410131 740.972575 270.410131 740.886638 270.445287 740.820231 C 270.476537 740.753825 270.542944 740.699138 270.636694 740.663981 C 270.726538 740.632731 270.843725 740.617106 270.976538 740.609294 C 271.10935 740.601481 271.257788 740.601481 271.429663 740.624919 C 271.605445 740.652263 271.804664 740.70695 272.003883 740.812419 C 272.203102 740.917888 272.402321 741.08195 272.617164 741.253825 C 272.832008 741.4257 273.062477 741.605388 273.308571 741.839763 C 273.558572 742.070231 273.824197 742.351481 274.097635 742.64445 C 274.371072 742.933513 274.652323 743.2382 274.933573 743.562419 C 275.214823 743.882731 275.496074 744.226481 275.789043 744.597575 C 276.078105 744.968669 276.378887 745.3632 276.695294 745.785075 C 277.0117 746.20695 277.343732 746.656169 277.652326 747.105388 C 277.957014 747.5507 278.238264 747.999919 278.503889 748.421794 C 278.769514 748.843669 279.019515 749.242106 279.269515 749.648356 C 279.515609 750.054606 279.761703 750.468669 279.992172 750.867106 C 280.226547 751.265544 280.445297 751.648356 280.628891 751.980388 C 280.812485 752.308513 280.960923 752.589763 281.07811 752.847575 C 281.191392 753.101481 281.273423 753.33195 281.347642 753.542888 C 281.421861 753.757731 281.488267 753.95695 281.531236 754.124919 C 281.570298 754.288981 281.585923 754.4257 281.593736 754.5507 C 281.601548 754.6757 281.601548 754.788981 281.601548 754.882731 C 281.601548 754.972575 281.601548 755.038981 281.55858 755.08195 C 281.519517 755.124919 281.437486 755.140544 281.324204 755.148356 C 281.207017 755.156169 281.058579 755.156169 280.867173 755.148356 C 280.675766 755.140544 280.441391 755.124919 280.218735 755.054606 C 279.992172 754.9882 279.777328 754.867106 279.562484 754.726481 C 279.34764 754.585856 279.132796 754.4257 278.91014 754.234294 C 278.683577 754.042888 278.449202 753.824138 278.218733 753.601481 C 277.984357 753.378825 277.753888 753.148356 277.531232 752.917888 C 277.308575 752.683513 277.093731 752.449138 276.878887 752.210856 C 276.664044 751.972575 276.4492 751.726481 276.242168 751.468669 C 276.035137 751.214763 275.835918 750.949138 275.652324 750.683513 C 275.46873 750.417888 275.300761 750.152263 275.136698 749.886638 C 274.968729 749.621013 274.804667 749.355388 274.656229 749.101481 C 274.507791 748.843669 274.374979 748.597575 274.257791 748.351481 C 274.140603 748.105388 274.039041 747.855388 273.949197 747.621013 C 273.855447 747.390544 273.773416 747.1757 273.718728 746.980388 C 273.660134 746.781169 273.628884 746.597575 273.605447 746.417888 C 273.578103 746.234294 273.558572 746.0507 273.546853 745.882731 C 273.53904 745.718669 273.53904 745.566325 273.53904 745.433513 C 273.53904 745.3007 273.53904 745.187419 273.574197 745.078044 C 273.605447 744.972575 273.671853 744.874919 273.765603 744.796794 C 273.855447 744.722575 273.972635 744.671794 274.132791 744.593669 C 274.289041 744.51945 274.48826 744.421794 274.687479 744.320231 M 288.421868 750.527263 C 288.457024 750.480388 288.49218 750.433513 288.511712 750.367106 C 288.527337 750.304606 288.527337 750.218669 288.527337 750.101481 C 288.527337 749.984294 288.527337 749.835856 288.527337 749.660075 C 288.527337 749.484294 288.527337 749.288981 288.49218 749.08195 C 288.46093 748.874919 288.394524 748.660075 288.320305 748.441325 C 288.24218 748.218669 288.156243 747.9882 288.066399 747.757731 C 287.972649 747.527263 287.874992 747.292888 287.777336 747.042888 C 287.675773 746.792888 287.574211 746.527263 287.472648 746.253825 C 287.374992 745.976481 287.277335 745.695231 287.187492 745.413981 C 287.097648 745.132731 287.015616 744.851481 286.929679 744.562419 C 286.847647 744.273356 286.76171 743.976481 286.675772 743.679606 C 286.593741 743.382731 286.51171 743.085856 286.437491 742.788981 C 286.363272 742.492106 286.296866 742.195231 286.238272 741.906169 C 286.179678 741.617106 286.128897 741.335856 286.089834 741.070231 C 286.046865 740.804606 286.015615 740.554606 285.992178 740.335856 C 285.96874 740.121013 285.953115 739.937419 285.945303 739.757731 C 285.93749 739.574138 285.93749 739.390544 285.93749 739.226481 C 285.93749 739.062419 285.93749 738.917888 285.93749 738.785075 C 285.93749 738.652263 285.93749 738.531169 285.945303 738.441325 C 285.953115 738.351481 285.96874 738.288981 286.011709 738.222575 C 286.050772 738.156169 286.117178 738.089763 286.199209 738.038981 C 286.281241 737.9882 286.378897 737.95695 286.492178 737.941325 C 286.609366 737.9257 286.742179 737.9257 286.88671 737.9257 C 287.027335 737.9257 287.179679 737.9257 287.347648 737.976481 C 287.511711 738.027263 287.691398 738.124919 287.871086 738.265544 C 288.05468 738.406169 288.238274 738.589763 288.42968 738.788981 C 288.621087 738.984294 288.820306 739.199138 289.019525 739.429606 C 289.218744 739.663981 289.417963 739.913981 289.617181 740.167888 C 289.8164 740.421794 290.015619 740.683513 290.214838 740.95695 C 290.414057 741.226481 290.613276 741.507731 290.804683 741.788981 C 290.996089 742.070231 291.179683 742.351481 291.351558 742.64445 C 291.52734 742.933513 291.691402 743.2382 291.863277 743.546794 C 292.039059 743.851481 292.222653 744.163981 292.390622 744.468669 C 292.554684 744.773356 292.703122 745.070231 292.843747 745.367106 C 292.984372 745.663981 293.117185 745.960856 293.242185 746.253825 C 293.367185 746.542888 293.484373 746.824138 293.597654 747.089763 C 293.714842 747.355388 293.828123 747.605388 293.917967 747.835856 C 294.007811 748.066325 294.074217 748.281169 294.132811 748.480388 C 294.191405 748.6757 294.242186 748.859294 294.285155 749.027263 C 294.328124 749.195231 294.36328 749.343669 294.390624 749.460856 C 294.414061 749.578044 294.429686 749.663981 294.445311 749.734294 C 294.460936 749.808513 294.476561 749.871013 294.484374 749.929606 C 294.492186 749.984294 294.492186 750.038981 294.492186 750.070231 C 294.492186 750.105388 294.492186 750.121013 294.460936 750.121013 C 294.42578 750.121013 294.359374 750.105388 294.30078 750.038981 C 294.242186 749.976481 294.191405 749.859294 294.132811 749.742106 C 294.074217 749.624919 294.007811 749.507731 293.953123 749.390544 C 293.894529 749.273356 293.847654 749.156169 293.796873 749.042888 C 293.749998 748.929606 293.699217 748.812419 293.648435 748.699138 C 293.597654 748.58195 293.546873 748.468669 293.515623 748.3632 C 293.480467 748.253825 293.464842 748.156169 293.441404 748.058513 C 293.41406 747.95695 293.378904 747.859294 293.35156 747.76945 C 293.328123 747.6757 293.312498 747.593669 293.304685 747.51945 C 293.296873 747.441325 293.296873 747.374919 293.296873 747.324138 C 293.296873 747.277263 293.296873 747.246013 293.296873 747.210856 C 293.296873 747.1757 293.296873 747.140544 293.296873 747.1132 C 293.296873 747.089763 293.296873 747.074138 293.296873 747.058513 C 293.296873 747.042888 293.296873 747.027263 293.324216 747.01945 C 293.347654 747.011638 293.398435 747.011638 293.457029 747.01945 C 293.515623 747.027263 293.582029 747.042888 293.656248 747.089763 C 293.730467 747.140544 293.812498 747.222575 293.894529 747.316325 C 293.976561 747.406169 294.058592 747.503825 294.132811 747.597575 C 294.20703 747.687419 294.273436 747.76945 294.33203 747.847575 C 294.390624 747.921794 294.441405 747.9882 294.492186 748.062419 C 294.542968 748.136638 294.593749 748.214763 294.64453 748.285075 C 294.695312 748.359294 294.746093 748.4257 294.785155 748.4882 C 294.828124 748.546794 294.859374 748.597575 294.89453 748.640544 C 294.925781 748.683513 294.960937 748.714763 294.984374 748.7382 C 295.011718 748.761638 295.027343 748.777263 295.035156 748.792888 C 295.042968 748.808513 295.042968 748.824138 295.042968 748.824138 C 295.042968 748.824138 295.042968 748.808513 295.035156 748.757731 C 295.027343 748.70695 295.011718 748.624919 294.968749 748.535075 C 294.929687 748.441325 294.86328 748.343669 294.796874 748.2382 C 294.730468 748.128825 294.664062 748.015544 294.589843 747.902263 C 294.511718 747.785075 294.42578 747.671794 294.347655 747.558513 C 294.273436 747.441325 294.20703 747.328044 294.140623 747.210856 C 294.074217 747.093669 294.007811 746.972575 293.953123 746.8632 C 293.894529 746.753825 293.847654 746.656169 293.789061 746.5507 C 293.734373 746.441325 293.667967 746.328044 293.609373 746.214763 C 293.550779 746.097575 293.499998 745.984294 293.449217 745.874919 C 293.398435 745.76945 293.347654 745.671794 293.28906 745.570231 C 293.230466 745.472575 293.16406 745.374919 293.105466 745.273356 C 293.046872 745.1757 292.996091 745.078044 292.957029 744.984294 C 292.91406 744.89445 292.88281 744.812419 292.847653 744.726481 C 292.816403 744.64445 292.781247 744.562419 292.746091 744.476481 C 292.714841 744.39445 292.683591 744.312419 292.652341 744.218669 C 292.617184 744.128825 292.582028 744.031169 292.546872 743.929606 C 292.515622 743.83195 292.484372 743.734294 292.453122 743.632731 C 292.417966 743.535075 292.382809 743.437419 292.355465 743.343669 C 292.332028 743.253825 292.316403 743.167888 292.30859 743.085856 C 292.300778 743.003825 292.300778 742.917888 292.292965 742.843669 C 292.285153 742.76945 292.269528 742.699138 292.261715 742.636638 C 292.253903 742.570231 292.253903 742.507731 292.253903 742.449138 C 292.253903 742.39445 292.253903 742.339763 292.253903 742.3007 C 292.253903 742.257731 292.253903 742.226481 292.253903 742.203044 C 292.253903 742.179606 292.253903 742.163981 292.269528 742.156169 C 292.285153 742.148356 292.316403 742.148356 292.363278 742.156169 C 292.414059 742.163981 292.480466 742.179606 292.566403 742.261638 C 292.648434 742.339763 292.749997 742.4882 292.847653 742.660075 C 292.949216 742.83195 293.046872 743.027263 293.160154 743.26945 C 293.277341 743.507731 293.410154 743.788981 293.558592 744.132731 C 293.710936 744.472575 293.878904 744.874919 294.070311 745.320231 C 294.261717 745.76945 294.476561 746.265544 294.691405 746.76945 C 294.906249 747.26945 295.121093 747.781169 295.351562 748.335856 C 295.585937 748.890544 295.835938 749.492106 296.109375 750.163981 C 296.382813 750.835856 296.679689 751.58195 296.968751 752.3007 C 297.26172 753.01945 297.546877 753.710856 297.890627 754.523356 C 298.230471 755.33195 298.628909 756.257731 299.058597 757.26945 C 299.488285 758.281169 299.949223 759.374919 300.437505 760.507731 C 300.925787 761.640544 301.441412 762.816325 302.007819 764.136638 C 302.570319 765.460856 303.183601 766.937419 303.804696 768.402263 C 304.429696 769.871013 305.062509 771.328044 305.675791 772.726481 C 306.289073 774.128825 306.882824 775.464763 307.562512 777.023356 C 308.2422 778.578044 309.007826 780.347575 309.757827 782.046794 C 310.503921 783.742106 311.234391 785.3632 311.957048 786.953044 C 312.675798 788.538981 313.386736 790.097575 314.08205 791.671794 C 314.777363 793.246013 315.457051 794.835856 316.121114 796.406169 C 316.785177 797.976481 317.433616 799.531169 318.031272 800.972575 C 318.628929 802.413981 319.175805 803.742106 319.746118 805.191325 C 320.320337 806.636638 320.917994 808.20695 321.441432 809.6132 C 321.96487 811.01945 322.414089 812.265544 322.859402 813.523356 C 323.308621 814.781169 323.753934 816.054606 324.17581 817.230388 C 324.597685 818.406169 324.996123 819.484294 325.34378 820.410075 C 325.695343 821.339763 325.996124 822.1132 326.253937 822.808513 C 326.51175 823.507731 326.726594 824.121013 326.914094 824.624919 C 327.1055 825.132731 327.269563 825.527263 327.38675 825.847575 C 327.500032 826.167888 327.566438 826.413981 327.617219 826.585856 C 327.668001 826.757731 327.703157 826.855388 327.695345 826.785075 C 327.687532 826.710856 327.636751 826.464763 327.476594 826.054606 C 327.320344 825.640544 327.054719 825.062419 326.7305 824.382731 C 326.406281 823.703044 326.023468 822.921794 325.582061 822.003825 C 325.144561 821.08195 324.648466 820.023356 324.136747 818.898356 C 323.621122 817.773356 323.089871 816.58195 322.500027 815.2382 C 321.910183 813.898356 321.261744 812.406169 320.621119 810.949138 C 319.984399 809.492106 319.355492 808.070231 318.750023 806.640544 C 318.144554 805.210856 317.562522 803.773356 316.882834 802.08195 C 316.203146 800.39445 315.425801 798.45695 314.671894 796.570231 C 313.917987 794.683513 313.187518 792.851481 312.406267 790.847575 C 311.628922 788.843669 310.800796 786.671794 310.027358 784.574138 C 309.257826 782.480388 308.542982 780.464763 307.878918 778.562419 C 307.214855 776.660075 306.601573 774.871013 305.96876 772.953044 C 305.339853 771.031169 304.691415 768.980388 304.070321 766.992106 C 303.449227 765.003825 302.855476 763.08195 302.300788 761.242106 C 301.7461 759.406169 301.230474 757.656169 300.773443 755.976481 C 300.316411 754.296794 299.917973 752.683513 299.578129 751.265544 C 299.238285 749.851481 298.957035 748.624919 298.710941 747.51945 C 298.46094 746.410075 298.246096 745.421794 298.074221 744.496013 C 297.89844 743.570231 297.765627 742.710856 297.640627 741.874919 C 297.515627 741.038981 297.398439 740.226481 297.296877 739.480388 C 297.19922 738.734294 297.117189 738.058513 297.01172 737.4257 C 296.902345 736.796794 296.769532 736.214763 296.63672 735.628825 M 302.707038 736.628825 C 302.722663 736.628825 302.738288 736.628825 302.753913 736.628825 C 302.769538 736.628825 302.785163 736.628825 302.800788 736.628825 C 302.816413 736.628825 302.832038 736.628825 302.855476 736.628825 C 302.88282 736.628825 302.917976 736.628825 302.94532 736.64445 C 302.968757 736.660075 302.984382 736.691325 303.019539 736.749919 C 303.050789 736.808513 303.10157 736.890544 303.152351 736.972575 C 303.203133 737.058513 303.253914 737.140544 303.312508 737.246013 C 303.371101 737.355388 303.437508 737.484294 303.503914 737.640544 C 303.57032 737.796794 303.636727 737.980388 303.710946 738.187419 C 303.785164 738.398356 303.867196 738.632731 303.964852 738.882731 C 304.066415 739.132731 304.183602 739.398356 304.308602 739.710856 C 304.433603 740.027263 304.566415 740.390544 304.714853 740.781169 C 304.86329 741.167888 305.027353 741.58195 305.226572 742.058513 C 305.425791 742.538981 305.660166 743.085856 305.917979 743.70695 C 306.175792 744.328044 306.457042 745.01945 306.746105 745.757731 C 307.035168 746.496013 307.332043 747.277263 307.699231 748.187419 C 308.062512 749.101481 308.496107 750.140544 308.953138 751.20695 C 309.41017 752.273356 309.890639 753.3632 310.410171 754.496013 C 310.933609 755.628825 311.49611 756.808513 312.136735 758.124919 C 312.773455 759.445231 313.488299 760.902263 314.203144 762.359294 C 314.914082 763.816325 315.62502 765.26945 316.320333 766.691325 C 317.015646 768.1132 317.695335 769.503825 318.484398 771.070231 C 319.273461 772.632731 320.1719 774.367106 321.042994 776.062419 C 321.914089 777.757731 322.75784 779.417888 323.628934 781.089763 C 324.500029 782.761638 325.398467 784.449138 326.292999 786.105388 C 327.191438 787.765544 328.08597 789.390544 328.97269 791.011638 C 329.859409 792.636638 330.738316 794.257731 331.55863 795.792888 C 332.378943 797.33195 333.140662 798.785075 333.945351 800.33195 C 334.750039 801.878825 335.597696 803.523356 336.367228 805.038981 C 337.140666 806.554606 337.83598 807.945231 338.449262 809.218669 C 339.062543 810.496013 339.593794 811.652263 340.097701 812.8007 C 340.605514 813.949138 341.085983 815.089763 341.515671 816.074138 C 341.949265 817.058513 342.332078 817.886638 342.66411 818.601481 C 342.996141 819.312419 343.277391 819.906169 343.50786 820.402263 C 343.742236 820.902263 343.92583 821.3007 344.05083 821.636638 C 344.17583 821.968669 344.242236 822.234294 344.281299 822.441325 C 344.324267 822.64445 344.339892 822.792888 344.339892 822.8632 C 344.339892 822.937419 344.324267 822.937419 344.191455 822.886638 C 344.058642 822.839763 343.808642 822.7382 343.523485 822.507731 C 343.242235 822.277263 342.925829 821.910075 342.511766 821.390544 C 342.097703 820.871013 341.585983 820.191325 341.070358 819.4882 C 340.558639 818.785075 340.043013 818.054606 339.460981 817.203044 C 338.882856 816.351481 338.238324 815.374919 337.582073 814.390544 C 336.929729 813.406169 336.265666 812.410075 335.574259 811.378825 C 334.886758 810.343669 334.171914 809.26945 333.449257 808.160075 C 332.7266 807.0507 331.99613 805.902263 331.214879 804.617106 C 330.437535 803.335856 329.609409 801.910075 328.824252 800.496013 C 328.035189 799.08195 327.289094 797.6757 326.550812 796.26945 C 325.81253 794.8632 325.082061 793.453044 324.359404 792.023356 C 323.636747 790.593669 322.921902 789.140544 322.207058 787.667888 C 321.49612 786.195231 320.785181 784.70695 320.121118 783.296794 C 319.460961 781.890544 318.847679 780.566325 318.167991 779.136638 C 317.488303 777.703044 316.742209 776.160075 316.101583 774.8007 C 315.464864 773.445231 314.933613 772.273356 314.402363 771.089763 C 313.871112 769.906169 313.339861 768.714763 312.890642 767.64445 C 312.441423 766.578044 312.074235 765.632731 311.722672 764.722575 C 311.375016 763.808513 311.042984 762.929606 310.785171 762.1757 C 310.531265 761.421794 310.351577 760.796794 310.218765 760.234294 C 310.085952 759.671794 310.000014 759.171794 309.949233 758.730388 C 309.898452 758.292888 309.882827 757.910075 309.875014 757.58195 C 309.867202 757.249919 309.867202 756.968669 309.894545 756.746013 C 309.917983 756.523356 309.968764 756.3632 310.101577 756.249919 C 310.23439 756.132731 310.449234 756.066325 310.679703 756.023356 C 310.914078 755.984294 311.164078 755.968669 311.429703 755.960856 C 311.695329 755.953044 311.976579 755.953044 312.30861 756.015544 C 312.640642 756.08195 313.023455 756.210856 313.390643 756.39445 C 313.753924 756.578044 314.101581 756.812419 314.507831 757.085856 C 314.914082 757.359294 315.378926 757.671794 315.84377 758.011638 C 316.308614 758.347575 316.773459 758.714763 317.253928 759.101481 C 317.734397 759.492106 318.230491 759.902263 318.734398 760.339763 C 319.242211 760.777263 319.757837 761.242106 320.269556 761.703044 C 320.785181 762.167888 321.296901 762.632731 321.80862 763.105388 C 322.324245 763.574138 322.839871 764.054606 323.343778 764.503825 C 323.851591 764.953044 324.347685 765.367106 324.828154 765.765544 C 325.308623 766.163981 325.773468 766.546794 326.179718 766.867106 C 326.589875 767.191325 326.941438 767.45695 327.265657 767.691325 C 327.589876 767.921794 327.886751 768.121013 328.14847 768.3007 C 328.414095 768.480388 328.644564 768.640544 328.859408 768.781169 C 329.074252 768.921794 329.273471 769.042888 329.421909 769.132731 C 329.574253 769.222575 329.675815 769.285075 329.75394 769.328044 C 329.828159 769.371013 329.87894 769.390544 329.910191 769.402263 C 329.945347 769.410075 329.960972 769.410075 329.968784 769.386638 C 329.976597 769.359294 329.976597 769.308513 329.902378 769.183513 C 329.828159 769.058513 329.679722 768.859294 329.488315 768.6132 C 329.296909 768.3632 329.062533 768.066325 328.828158 767.761638 C 328.597689 767.453044 328.36722 767.132731 328.11722 766.777263 C 327.871126 766.421794 327.605501 766.023356 327.339875 765.621013 C 327.07425 765.218669 326.808625 764.804606 326.51175 764.339763 C 326.210968 763.878825 325.878936 763.3632 325.574249 762.871013 C 325.265655 762.382731 324.984404 761.917888 324.699248 761.445231 C 324.417998 760.976481 324.132841 760.496013 323.882841 760.058513 C 323.63284 759.621013 323.417997 759.222575 323.19534 758.808513 C 322.972684 758.39445 322.742215 757.964763 322.542996 757.566325 C 322.343777 757.167888 322.175808 756.8007 322.015651 756.437419 C 321.859401 756.078044 321.710964 755.718669 321.593776 755.386638 C 321.480495 755.054606 321.398463 754.753825 321.347682 754.496013 C 321.300807 754.2382 321.285182 754.023356 321.277369 753.816325 C 321.269557 753.6132 321.269557 753.413981 321.269557 753.249919 C 321.269557 753.085856 321.269557 752.95695 321.335963 752.847575 C 321.40237 752.742106 321.535182 752.660075 321.722682 752.609294 C 321.914089 752.558513 322.160183 752.542888 322.441433 752.535075 C 322.722683 752.527263 323.03909 752.527263 323.378934 752.578044 C 323.718778 752.628825 324.08206 752.726481 324.511748 752.882731 C 324.945342 753.038981 325.445342 753.253825 325.960968 753.507731 C 326.476593 753.761638 327.007844 754.062419 327.578157 754.374919 C 328.152376 754.691325 328.765658 755.023356 329.437534 755.406169 C 330.109409 755.785075 330.839879 756.210856 331.55863 756.640544 C 332.281287 757.074138 332.992225 757.503825 333.710976 757.945231 C 334.433633 758.386638 335.164102 758.83195 335.894571 759.296794 C 336.625041 759.761638 337.35551 760.242106 338.066449 760.710856 C 338.781293 761.183513 339.476606 761.648356 340.128951 762.078044 C 340.785201 762.507731 341.398483 762.902263 342.02739 763.3007 C 342.660203 763.695231 343.308641 764.089763 343.921923 764.45695 C 344.539111 764.820231 345.121143 765.156169 345.62505 765.429606 C 346.132863 765.703044 346.562551 765.913981 346.984426 766.1132 C 347.406302 766.312419 347.820365 766.492106 348.168021 766.640544 C 348.515678 766.788981 348.796928 766.906169 349.046928 766.9882 C 349.296929 767.070231 349.515679 767.124919 349.707085 767.156169 C 349.898492 767.191325 350.062554 767.20695 350.195367 767.214763 C 350.32818 767.222575 350.429742 767.222575 350.496149 767.214763 C 350.562555 767.20695 350.593805 767.191325 350.60943 767.101481 C 350.625055 767.007731 350.625055 766.843669 350.597711 766.640544 C 350.574274 766.441325 350.523492 766.20695 350.406305 765.933513 C 350.293023 765.660075 350.113336 765.347575 349.921929 765.015544 C 349.734429 764.683513 349.53521 764.335856 349.31646 763.980388 C 349.101616 763.621013 348.867241 763.257731 348.632865 762.871013 C 348.402397 762.480388 348.171928 762.070231 347.92974 761.663981 C 347.691458 761.261638 347.441458 760.867106 347.207083 760.460856 C 346.976614 760.054606 346.76177 759.636638 346.546926 759.230388 C 346.332082 758.824138 346.117238 758.4257 345.933644 758.046794 C 345.75005 757.667888 345.597706 757.3007 345.472706 756.980388 C 345.347706 756.656169 345.25005 756.374919 345.175831 756.085856 C 345.101612 755.796794 345.050831 755.499919 345.015674 755.249919 C 344.984424 755.003825 344.968799 754.804606 344.960987 754.609294 C 344.953174 754.410075 344.953174 754.210856 344.960987 754.027263 C 344.968799 753.847575 344.984424 753.679606 345.058643 753.546794 C 345.132862 753.413981 345.265675 753.316325 345.449269 753.230388 C 345.632862 753.148356 345.867238 753.08195 346.117238 753.046794 C 346.367238 753.011638 346.632863 753.011638 346.945364 753.011638 C 347.26177 753.011638 347.625052 753.011638 348.003959 753.062419 C 348.386771 753.1132 348.785209 753.210856 349.230522 753.378825 C 349.679742 753.542888 350.175836 753.777263 350.687555 754.035075 C 351.203181 754.296794 351.734431 754.578044 352.281307 754.874919 C 352.832088 755.171794 353.398495 755.484294 353.98834 755.812419 C 354.578184 756.14445 355.191466 756.492106 355.81256 756.843669 C 356.433655 757.191325 357.062561 757.542888 357.707093 757.886638 C 358.355531 758.234294 359.019595 758.578044 359.675845 758.917888 C 360.332096 759.253825 360.980534 759.589763 361.617253 759.906169 C 362.257879 760.218669 362.886786 760.515544 363.500068 760.796794 C 364.11335 761.078044 364.711007 761.343669 365.289132 761.593669 C 365.871164 761.839763 366.433665 762.070231 366.937571 762.26945 C 367.445384 762.464763 367.894603 762.632731 368.324291 762.785075 C 368.757886 762.933513 369.171949 763.070231 369.601636 763.203044 C 370.035231 763.335856 370.48445 763.464763 370.855544 763.574138 C 371.230544 763.679606 371.52742 763.761638 371.793045 763.820231 C 372.05867 763.878825 372.293045 763.910075 372.500077 763.933513 C 372.707108 763.95695 372.886796 763.972575 373.027421 763.980388 C 373.168046 763.9882 373.269609 763.9882 373.336015 763.9882 C 373.402422 763.9882 373.433672 763.9882 373.449297 763.95695 C 373.464922 763.9257 373.464922 763.8632 373.375078 763.746013 C 373.285234 763.632731 373.105546 763.464763 372.847733 763.285075 C 372.593827 763.101481 372.261795 762.902263 371.851639 762.671794 C 371.445388 762.441325 370.961013 762.1757 370.437575 761.906169 C 369.914137 761.640544 369.351636 761.374919 368.722729 761.093669 C 368.093822 760.812419 367.398509 760.515544 366.586008 760.203044 C 365.773508 759.886638 364.843819 759.554606 363.820381 759.214763 C 362.800848 758.874919 361.687566 758.531169 360.574284 758.183513 C 359.464908 757.839763 358.355531 757.4882 357.195374 757.124919 C 356.035217 756.761638 354.824278 756.378825 353.453183 755.964763 C 352.085994 755.5507 350.558649 755.101481 349.113335 754.671794 C 347.671927 754.242106 346.312551 753.83195 344.753955 753.359294 C 343.19536 752.886638 341.437546 752.355388 339.703169 751.843669 C 337.968792 751.33195 336.257853 750.835856 334.507851 750.328044 C 332.75785 749.824138 330.968785 749.308513 329.168002 748.796794 C 327.371125 748.281169 325.56253 747.76945 323.738309 747.265544 C 321.914089 746.761638 320.074243 746.261638 318.222679 745.76945 C 316.375021 745.281169 314.515644 744.8007 312.699236 744.328044 C 310.882828 743.859294 309.109388 743.39445 307.351574 742.941325 C 305.59376 742.4882 303.851571 742.042888 302.125006 741.605388 C 300.398442 741.167888 298.687503 740.734294 297.04297 740.288981 C 295.402344 739.839763 293.828123 739.374919 292.292965 738.913981 C 290.761714 738.449138 289.269525 737.984294 287.894523 737.546794 C 286.515616 737.109294 285.253896 736.699138 283.984363 736.26945 C 282.714831 735.839763 281.437486 735.390544 280.253891 734.968669 C 279.06639 734.546794 277.972639 734.148356 277.019513 733.792888 C 276.066387 733.437419 275.253886 733.117106 274.507791 732.812419 C 273.761697 732.503825 273.082009 732.20695 272.484352 731.941325 C 271.886695 731.679606 271.371069 731.449138 270.941382 731.2382 C 270.507787 731.023356 270.160131 730.824138 269.894505 730.64445 C 269.62888 730.460856 269.445286 730.292888 269.328099 730.128825 C 269.210911 729.960856 269.16013 729.792888 269.183567 729.624919 C 269.210911 729.460856 269.312474 729.292888 269.605443 729.152263 C 269.894505 729.011638 270.374975 728.898356 270.92185 728.824138 C 271.468726 728.749919 272.082008 728.718669 272.855446 728.703044 C 273.624978 728.687419 274.554666 728.687419 275.605449 728.703044 C 276.660137 728.718669 277.83592 728.749919 279.054671 728.859294 C 280.273422 728.964763 281.535142 729.148356 282.863268 729.335856 C 284.191395 729.527263 285.585927 729.726481 287.101554 729.949138 C 288.621087 730.1757 290.261713 730.4257 291.859371 730.656169 C 293.460935 730.886638 295.019531 731.101481 296.515626 731.3007 C 298.007815 731.496013 299.437504 731.679606 301.007818 731.8632 C 302.574226 732.042888 304.281259 732.226481 305.871104 732.402263 C 307.464856 732.574138 308.94142 732.742106 310.308608 732.851481 C 311.679704 732.95695 312.941424 733.003825 314.183612 733.035075 C 315.429707 733.066325 316.656271 733.08195 317.722678 733.089763 C 318.792992 733.097575 319.703149 733.097575 320.51565 733.046794 C 321.328151 732.999919 322.042995 732.898356 322.656277 732.734294 C 323.273465 732.570231 323.789091 732.339763 324.210966 732.058513 C 324.636748 731.777263 324.968779 731.445231 325.15628 731.031169 C 325.347686 730.617106 325.394561 730.121013 325.300811 729.535075 C 325.210967 728.949138 324.980498 728.273356 324.472685 727.492106 C 323.968778 726.714763 323.187528 725.83195 322.250027 724.890544 C 321.312526 723.945231 320.218775 722.941325 318.867211 721.765544 C 317.515647 720.589763 315.90627 719.246013 314.105487 717.828044 C 312.30861 716.410075 310.320327 714.921794 308.316419 713.484294 C 306.308604 712.046794 304.285165 710.660075 302.175788 709.210856 C 300.070317 707.761638 297.878908 706.249919 295.65625 704.710856 C 293.429685 703.171794 291.171871 701.601481 288.890618 700.038981 C 286.609366 698.476481 284.304676 696.917888 282.035143 695.371013 C 279.761703 693.824138 277.523419 692.285075 275.308573 690.7382 C 273.093727 689.191325 270.902319 687.632731 268.789036 686.109294 C 266.671846 684.58195 264.632781 683.093669 262.703092 681.660075 C 260.769496 680.226481 258.945276 678.851481 257.320274 677.578044 C 255.695273 676.304606 254.26949 675.132731 252.933551 673.980388 C 251.597612 672.83195 250.351517 671.70695 249.19136 670.574138 C 248.027296 669.441325 246.94917 668.3007 246.039013 667.222575 C 245.124949 666.148356 244.378855 665.136638 243.808542 664.234294 C 243.234323 663.328044 242.835885 662.531169 242.562447 661.7382 C 242.289009 660.941325 242.140571 660.148356 242.074165 659.390544 C 242.007759 658.628825 242.023384 657.898356 242.18354 657.230388 C 242.33979 656.558513 242.640572 655.949138 243.124947 655.312419 C 243.605417 654.679606 244.26948 654.015544 245.007762 653.413981 C 245.746044 652.808513 246.558545 652.261638 247.488233 651.722575 C 248.414015 651.183513 249.456985 650.652263 250.417924 650.152263 C 251.378862 649.656169 252.257769 649.191325 253.136676 648.726481 " transform="matrix(0.999999,0,0,-1,-229.999704,838.999919)"/>
</g>
</g>
</svg>
